HIERARCHY
ROOT Hips
{
 OFFSET 0.000000 0.000000 0.000000
 CHANNELS 6 Xposition Yposition Zposition Yrotation Xrotation Zrotation
 JOINT Chest
 {
  OFFSET 0.000000 9.585900 0.002600
  CHANNELS 3 Yrotation Xrotation Zrotation
  JOINT Chest2
  {
   OFFSET 0.000000 9.601200 -0.005300
   CHANNELS 3 Yrotation Xrotation Zrotation
   JOINT Chest3
   {
    OFFSET 0.000000 9.561800 0.000000
    CHANNELS 3 Yrotation Xrotation Zrotation
    JOINT Chest4
    {
     OFFSET 0.000000 9.552100 0.000000
     CHANNELS 3 Yrotation Xrotation Zrotation
     JOINT Neck
     {
      OFFSET 0.000000 14.453000 0.000000
      CHANNELS 3 Yrotation Xrotation Zrotation
      JOINT Head
      {
       OFFSET 0.000000 8.936500 -0.011300
       CHANNELS 3 Yrotation Xrotation Zrotation
       End Site
       {
        OFFSET 0.000000 17.073600 -0.006000
       }
      }
     }
     JOINT RightCollar
     {
      OFFSET -2.921100 9.558500 0.000000
      CHANNELS 3 Yrotation Xrotation Zrotation
      JOINT RightShoulder
      {
       OFFSET -13.519700 0.000000 0.000000
       CHANNELS 3 Yrotation Xrotation Zrotation
       JOINT RightElbow
       {
        OFFSET 0.000000 -29.696600 0.000000
        CHANNELS 3 Yrotation Xrotation Zrotation
        JOINT RightWrist
        {
         OFFSET 0.000000 -24.004700 0.000000
         CHANNELS 3 Yrotation Xrotation Zrotation
         End Site
         {
          OFFSET 0.000000 -17.728500 0.000000
         }
        }
       }
      }
     }
     JOINT LeftCollar
     {
      OFFSET 2.921100 9.558500 0.000000
      CHANNELS 3 Yrotation Xrotation Zrotation
      JOINT LeftShoulder
      {
       OFFSET 13.519700 0.000000 0.000000
       CHANNELS 3 Yrotation Xrotation Zrotation
       JOINT LeftElbow
       {
        OFFSET 0.000000 -29.696600 0.000000
        CHANNELS 3 Yrotation Xrotation Zrotation
        JOINT LeftWrist
        {
         OFFSET 0.000000 -24.004700 0.000000
         CHANNELS 3 Yrotation Xrotation Zrotation
         End Site
         {
          OFFSET 0.000000 -17.728500 0.000000
         }
        }
       }
      }
     }
    }
   }
  }
 }
 JOINT RightHip
 {
  OFFSET -7.771700 -0.012900 -0.001300
  CHANNELS 3 Yrotation Xrotation Zrotation
  JOINT RightKnee
  {
   OFFSET 0.000000 -40.869800 0.001200
   CHANNELS 3 Yrotation Xrotation Zrotation
   JOINT RightAnkle
   {
    OFFSET 0.000000 -39.717900 0.002100
    CHANNELS 3 Yrotation Xrotation Zrotation
    JOINT RightToe
    {
     OFFSET 0.000000 -4.965400 11.033500
     CHANNELS 3 Yrotation Xrotation Zrotation
     End Site
     {
      OFFSET 0.000000 -1.423100 5.872300
     }
    }
   }
  }
 }
 JOINT LeftHip
 {
  OFFSET 7.771700 -0.012900 -0.001300
  CHANNELS 3 Yrotation Xrotation Zrotation
  JOINT LeftKnee
  {
   OFFSET 0.000000 -40.869800 0.001200
   CHANNELS 3 Yrotation Xrotation Zrotation
   JOINT LeftAnkle
   {
    OFFSET 0.000000 -39.717900 0.002100
    CHANNELS 3 Yrotation Xrotation Zrotation
    JOINT LeftToe
    {
     OFFSET 0.000000 -4.965400 11.033500
     CHANNELS 3 Yrotation Xrotation Zrotation
     End Site
     {
      OFFSET 0.000000 -1.423100 5.872300
     }
    }
   }
  }
 }
}
MOTION
Frames: 16
Frame Time: 0.008333
-41.419334 57.042022 43.958541 -169.567369 -34.217748 -8.880923 -6.063125 12.009963 7.844555 -3.539477 6.689111 2.266625 -4.375075 8.399170 2.766741 -3.529355 6.714483 2.263930 4.347258 22.597736 -3.137948 5.453934 -1.283228 -4.414728 1.650065 -0.536095 -4.035014 9.397988 -11.245566 4.801169 79.649836 -35.505493 -56.982392 10.919095 5.686160 -18.247614 -11.770218 3.192382 -4.072492 -6.249956 -4.509231 -3.803535 -76.098154 -32.024866 69.001305 -1.159163 -8.101007 13.511830 -18.597058 -25.668139 0.953550 9.815088 88.231751 6.918635 -0.565798 -24.867006 0.349568 -0.091404 0.671799 -0.032590 -18.137999 -41.068901 4.061676 159.760605 73.965347 158.395709 2.592542 -18.860815 -4.822102 -2.955465 -5.627775 -1.278608
-41.424291 57.029989 43.957721 -169.464618 -34.210102 -8.976989 -6.093498 12.031645 7.873119 -3.505899 6.723163 2.257977 -4.426181 8.365552 2.803295 -3.517197 6.741569 2.260398 4.314492 22.598952 -3.167318 5.424974 -1.282306 -4.439083 1.671266 -0.459722 -4.040496 9.354570 -11.297453 4.767216 79.682816 -35.541388 -57.051034 10.955897 5.720947 -18.175533 -11.702574 3.283128 -4.122686 -6.302175 -4.571877 -3.750517 -76.155247 -32.120099 69.107754 -1.140724 -8.098643 13.459387 -18.698994 -25.641161 0.991213 9.702991 88.234838 6.805137 -0.560958 -24.874615 0.348175 -0.091553 0.669375 -0.031582 -18.216219 -41.107615 4.036558 159.631060 73.909862 158.320101 2.625851 -18.814155 -4.838087 -2.988421 -5.659110 -1.292513
-41.431643 57.017764 43.958698 -169.389714 -34.195290 -9.044402 -6.109418 12.043277 7.886088 -3.522873 6.718683 2.273882 -4.413379 8.387345 2.800804 -3.515531 6.753462 2.265526 4.283751 22.597657 -3.195557 5.397883 -1.284331 -4.462610 1.687523 -0.387154 -4.046894 9.306846 -11.395350 4.759548 79.664893 -35.508803 -57.046333 10.979676 5.720851 -18.127196 -11.684340 3.293999 -4.128040 -6.292728 -4.562324 -3.751477 -76.218954 -32.216366 69.223498 -1.188794 -8.094635 13.397614 -18.776062 -25.634014 1.019541 9.688295 88.241343 6.786737 -0.560732 -24.882069 0.350212 -0.090562 0.668694 -0.031755 -18.278878 -41.148688 4.015259 159.520505 73.866802 158.251207 2.629331 -18.789675 -4.857674 -2.992711 -5.670187 -1.293351
-41.439667 57.006538 43.959956 -169.329848 -34.180877 -9.102447 -6.106447 12.053481 7.902815 -3.545088 6.713564 2.287352 -4.365899 8.453308 2.780271 -3.544727 6.722642 2.293008 4.254921 22.596376 -3.220635 5.372083 -1.286352 -4.483161 1.701003 -0.317874 -4.051021 9.293986 -11.350000 4.684658 79.731772 -35.552249 -57.206867 10.998294 5.719875 -18.093000 -11.676784 3.286602 -4.120339 -6.267999 -4.535194 -3.765956 -76.289285 -32.305131 69.349691 -1.147111 -8.118739 13.348721 -18.841019 -25.629262 1.047158 9.640843 88.247068 6.735389 -0.559239 -24.888810 0.352904 -0.090748 0.671191 -0.033352 -18.334360 -41.188066 3.997331 159.410440 73.825818 158.180027 2.620176 -18.765321 -4.875785 -2.984975 -5.682918 -1.293616
-41.446768 56.997835 43.959406 -169.283814 -34.180078 -9.164026 -6.095896 12.078808 7.924514 -3.508643 6.753326 2.273805 -4.394789 8.436239 2.811317 -3.543871 6.732352 2.297958 4.228202 22.597065 -3.240654 5.354456 -1.302515 -4.488470 1.694293 -0.310746 -4.038993 9.294571 -11.289314 4.630324 79.765609 -35.561962 -57.314254 11.019125 5.708645 -18.069275 -11.612784 3.376025 -4.174453 -6.309612 -4.594374 -3.703324 -76.368238 -32.380355 69.481736 -1.108204 -8.146297 13.310614 -18.894848 -25.606296 1.081143 9.598071 88.247693 6.691556 -0.556534 -24.894339 0.353416 -0.092886 0.678409 -0.036039 -18.387308 -41.211122 3.993506 159.311559 73.781353 158.105431 2.639208 -18.733964 -4.885381 -3.007588 -5.706254 -1.301338
-41.454403 56.990213 43.958786 -169.250353 -34.180253 -9.219663 -6.072857 12.104740 7.948546 -3.507950 6.762077 2.276703 -4.392873 8.449488 2.816799 -3.542469 6.742954 2.302346 4.207048 22.569114 -3.235246 5.349324 -1.318077 -4.484494 1.684405 -0.304266 -4.024432 9.293825 -11.251645 4.590748 79.745626 -35.499105 -57.363890 11.003595 5.650367 -18.075930 -11.581766 3.428161 -4.199994 -6.311410 -4.623764 -3.675290 -76.458783 -32.441881 69.621095 -1.098055 -8.165954 13.270118 -18.938058 -25.584687 1.117109 9.563311 88.245057 6.655466 -0.558164 -24.894795 0.356071 -0.093674 0.678455 -0.037603 -18.435430 -41.234783 3.991315 159.195935 73.734013 158.010214 2.662345 -18.692369 -4.894765 -3.035975 -5.739574 -1.310939
-41.467930 56.979209 43.963670 -169.206352 -34.140607 -9.244455 -6.075359 12.086915 7.935474 -3.511367 6.766588 2.287738 -4.400689 8.448469 2.826236 -3.525202 6.777468 2.290631 4.184721 22.538766 -3.227237 5.323088 -1.283443 -4.509499 1.712588 -0.146595 -4.042908 9.238698 -11.366400 4.564988 79.743583 -35.476281 -57.426101 11.007111 5.635842 -18.075674 -11.569267 3.458215 -4.210494 -6.295379 -4.635159 -3.667479 -76.554015 -32.492958 69.768865 -1.087841 -8.186201 13.225933 -18.985692 -25.619501 1.126047 9.442398 88.257301 6.528422 -0.556676 -24.899389 0.361282 -0.092102 0.678417 -0.034964 -18.481216 -41.305337 3.950115 159.067652 73.703111 157.923049 2.636150 -18.657019 -4.930593 -2.995410 -5.753717 -1.298741
-41.479025 56.972222 43.963903 -169.141876 -34.127479 -9.304868 -6.078192 12.100748 7.948287 -3.509928 6.779965 2.290491 -4.418402 8.438240 2.843772 -3.523605 6.783400 2.292197 4.162530 22.616733 -3.286433 5.277193 -1.285705 -4.523129 1.736264 -0.022910 -4.066560 9.202082 -11.417366 4.546649 79.753975 -35.466930 -57.497311 11.005836 5.625518 -18.078015 -11.541121 3.512692 -4.244272 -6.285587 -4.643151 -3.659108 -76.647436 -32.541312 69.922591 -1.075770 -8.213857 13.172338 -19.054819 -25.607551 1.148403 9.239408 88.256755 6.320235 -0.550770 -24.901875 0.363761 -0.090381 0.675908 -0.033274 -18.551224 -41.341120 3.932195 158.986849 73.668207 157.868110 2.652917 -18.619649 -4.949540 -3.000609 -5.776202 -1.300012
-41.489063 56.966872 43.962445 -169.094330 -34.124785 -9.368134 -6.066489 12.125245 7.969381 -3.492507 6.804046 2.290427 -4.426046 8.440498 2.856434 -3.537836 6.765857 2.310879 4.145653 22.663771 -3.326728 5.241242 -1.294482 -4.532783 1.752730 0.070327 -4.086728 9.168361 -11.433659 4.537304 79.766503 -35.451836 -57.570344 10.987739 5.577497 -18.101330 -11.508908 3.567571 -4.278223 -6.313100 -4.681175 -3.621163 -76.681431 -32.616509 70.033344 -1.060317 -8.253142 13.111461 -19.113399 -25.581330 1.180771 8.831376 88.251693 5.908467 -0.539163 -24.903859 0.363009 -0.091387 0.676872 -0.031505 -18.611529 -41.365527 3.928423 158.904089 73.626557 157.804793 2.678764 -18.573248 -4.954974 -3.027888 -5.812589 -1.310183
-41.499600 56.961648 43.960843 -169.038055 -34.118603 -9.436583 -6.055439 12.150818 7.994809 -3.488838 6.819958 2.292956 -4.386584 8.497290 2.844303 -3.564566 6.732981 2.343237 4.118817 22.626563 -3.318614 5.210041 -1.276682 -4.561037 1.751452 0.124657 -4.093844 9.128123 -11.441029 4.537141 79.785140 -35.435076 -57.649373 11.005081 5.643488 -18.032604 -11.489622 3.592887 -4.286226 -6.347178 -4.720013 -3.584803 -76.711935 -32.705696 70.142006 -1.039416 -8.307167 13.040685 -19.185783 -25.556264 1.212828 8.481554 88.247291 5.554964 -0.534144 -24.904936 0.364057 -0.084210 0.675841 -0.032316 -18.674401 -41.393129 3.922504 158.817608 73.585014 157.743029 2.698725 -18.528220 -4.958460 -3.052415 -5.847951 -1.320547
-41.515241 56.952530 43.964150 -168.913283 -34.066933 -9.509286 -6.118742 12.138652 7.985821 -3.476583 6.840252 2.296418 -4.366469 8.530135 2.842573 -3.534795 6.786804 2.333130 4.064940 22.517252 -3.277117 5.175462 -1.266394 -4.588478 1.712580 0.107919 -4.071720 9.076430 -11.440851 4.545611 79.833085 -35.434134 -57.750200 11.010684 5.688640 -17.981991 -11.531676 3.516935 -4.217555 -6.285527 -4.650958 -3.655034 -76.862438 -32.758191 70.347128 -1.008500 -8.372572 12.956980 -19.316221 -25.576531 1.214331 7.705134 88.248707 4.768588 -0.495936 -24.915084 0.364432 -0.088807 0.676469 -0.033499 -18.781277 -41.457982 3.890684 158.781872 73.575680 157.752461 2.659438 -18.534674 -4.993533 -2.989625 -5.820124 -1.296404
-41.527319 56.945948 43.963834 -168.857618 -34.044850 -9.568917 -6.106818 12.154886 8.004220 -3.469353 6.856465 2.297234 -4.354897 8.548974 2.846745 -3.512776 6.822413 2.326318 4.016064 22.520332 -3.313559 5.132876 -1.351521 -4.552041 1.689233 0.121737 -4.065737 9.006096 -11.436875 4.562487 79.928387 -35.461618 -57.885203 11.015964 5.737970 -17.936084 -11.561327 3.469540 -4.165798 -6.252532 -4.610364 -3.698312 -76.963274 -32.838657 70.513596 -0.971834 -8.436369 12.872560 -19.397257 -25.570745 1.237462 7.813408 88.245884 4.869284 -0.477325 -24.921463 0.356918 -0.100013 0.682799 -0.036468 -18.822764 -41.504839 3.864888 158.697718 73.539284 157.712215 2.676359 -18.490988 -5.005003 -3.003614 -5.853137 -1.299499
-41.537537 56.940015 43.962364 -168.806513 -34.026496 -9.637056 -6.050241 12.201561 8.018240 -3.490716 6.846598 2.322673 -4.341086 8.567390 2.851428 -3.501807 6.837231 2.329950 3.972616 22.506551 -3.332075 5.085890 -1.405560 -4.536148 1.676735 0.155030 -4.073384 8.924213 -11.430887 4.583963 79.982643 -35.458423 -57.981034 11.010903 5.728746 -17.919231 -11.555608 3.480974 -4.150704 -6.257362 -4.621116 -3.694283 -77.047799 -32.939410 70.656704 -0.938830 -8.484593 12.803687 -19.489826 -25.555214 1.275926 8.150461 88.236149 5.191639 -0.468145 -24.929309 0.349100 -0.101615 0.688088 -0.039907 -18.853412 -41.554014 3.834940 158.593734 73.491867 157.662651 2.724219 -18.420824 -5.012273 -3.065131 -5.915972 -1.314211
-41.552159 56.932874 43.961778 -168.769741 -34.002670 -9.667053 -6.012454 12.231194 8.011218 -3.489680 6.852509 2.333787 -4.325717 8.586479 2.856278 -3.489606 6.852556 2.333744 3.927891 22.437652 -3.309988 5.038349 -1.415136 -4.555335 1.659376 0.178556 -4.081159 8.847104 -11.421288 4.607267 80.040663 -35.472441 -58.073560 11.014579 5.719789 -17.909925 -11.502436 3.566989 -4.185268 -6.354745 -4.736476 -3.594914 -77.074732 -33.062782 70.753669 -0.912251 -8.513127 12.760452 -19.541321 -25.564382 1.286657 8.371839 88.239489 5.402138 -0.472394 -24.937206 0.352211 -0.097191 0.688324 -0.038615 -18.879762 -41.590777 3.817728 158.575508 73.476884 157.666378 2.692164 -18.430443 -5.015282 -3.031223 -5.905700 -1.303767
-41.565718 56.926879 43.959315 -168.753900 -33.989868 -9.689759 -5.966778 12.267555 8.013171 -3.476289 6.869674 2.337661 -4.308838 8.607814 2.861218 -3.476247 6.869679 2.337630 3.880116 22.355928 -3.287291 4.990294 -1.430910 -4.576794 1.636545 0.185418 -4.090826 8.786813 -11.406009 4.630756 80.081430 -35.489981 -58.178602 11.015736 5.696098 -17.889153 -11.491663 3.589463 -4.188678 -6.403998 -4.806594 -3.529454 -77.101684 -33.188567 70.846682 -0.891966 -8.526873 12.742877 -19.572610 -25.564043 1.299415 8.539173 88.241936 5.561172 -0.473908 -24.945754 0.352445 -0.094150 0.689685 -0.036282 -18.888098 -41.618009 3.803126 158.536965 73.455191 157.643534 2.674777 -18.429483 -5.015240 -3.014353 -5.907303 -1.296484
-41.572251 56.921880 43.955780 -168.715734 -33.970772 -9.762970 -5.934320 12.309135 8.054157 -3.462094 6.888333 2.341675 -4.290942 8.631060 2.866358 -3.462076 6.888312 2.341636 3.835433 22.304763 -3.296891 4.932193 -1.495487 -4.568492 1.611905 0.179757 -4.102020 8.747146 -11.385549 4.649309 80.115593 -35.521546 -58.280191 11.014863 5.680016 -17.877088 -11.497203 3.578331 -4.178358 -6.331816 -4.768659 -3.550740 -77.291963 -33.269999 71.045627 -0.877305 -8.537632 12.738023 -19.638306 -25.546185 1.356794 8.457247 88.234232 5.476791 -0.471210 -24.945419 0.344758 -0.091450 0.686622 -0.031878 -18.895808 -41.669119 3.782539 158.424739 73.399926 157.593967 2.736534 -18.347838 -5.011698 -3.074081 -5.981533 -1.320216
